<svg width="1375" height="654" viewBox="0 0 1375 654" fill="none" xmlns="http://www.w3.org/2000/svg">
<g clip-path="url(#clip0_1106_5725)">
<path d="M419.87 156.848C479.548 156.848 531.491 187.407 562.234 233.342C584.414 213.909 613.284 201.9 645.306 201.9C715.586 201.9 772.547 258.792 772.547 329.067C772.547 331.972 772.45 334.863 772.266 337.739C848.273 344.913 907.805 408.893 907.805 486.75C907.805 569.416 840.701 636.449 758.022 636.449H307.152C224.473 636.449 157.367 569.416 157.367 486.75C157.368 424.748 195.274 372.144 248.841 349.481C248.016 342.863 247.541 336.076 247.541 329.067C247.541 233.872 324.651 156.848 419.87 156.848Z" fill="#E85D00" stroke="#FCFBF4" stroke-width="25"/>
<path d="M123.476 384.536L314.717 294.914L365.553 384.536V621.915H123.476V384.536Z" fill="#E85D00"/>
<path d="M245.943 122.359C269.64 77.9139 333.308 77.9144 357.006 122.359L583.334 546.88C605.697 588.828 575.321 639.501 527.802 639.501H75.1462C27.6295 639.496 -2.75001 588.828 19.6151 546.88L245.943 122.359ZM358.122 343.141C334.409 298.759 270.818 298.759 247.106 343.141L142.479 538.983C120.067 580.931 150.445 631.653 197.986 631.653H407.242C454.783 631.653 485.162 580.931 462.749 538.983L358.122 343.141Z" fill="#E85D00"/>
<path d="M245.944 127.195L256.623 132.896C275.763 96.9976 327.186 96.9976 346.327 132.896L357.006 127.195L367.685 121.495C339.431 68.5026 263.518 68.5016 235.264 121.494L245.944 127.195ZM357.006 127.195L346.327 132.896L572.654 557.413L583.334 551.716L594.015 546.014L367.685 121.495L357.006 127.195ZM583.334 551.716L572.654 557.413C590.718 591.3 566.181 632.225 527.802 632.225V644.337V656.448C584.457 656.448 620.677 596.028 594.015 546.014L583.334 551.716ZM527.802 644.337V632.225H75.1463V644.337V656.448H527.802V644.337ZM75.1463 644.337V632.225C36.7675 632.225 12.2302 591.295 30.2945 557.413L19.6151 551.716L8.9358 546.014C-17.73 596.028 18.4911 656.443 75.1463 656.448V644.337ZM19.6151 551.716L30.2945 557.413L256.623 132.896L245.944 127.195L235.264 121.494L8.9358 546.014L19.6151 551.716ZM358.122 347.977L368.796 342.267C340.524 289.35 264.705 289.349 236.432 342.267L247.107 347.977L257.781 353.687C276.933 317.839 328.295 317.839 347.447 353.687L358.122 347.977ZM247.107 347.977L236.432 342.267L131.805 538.108L142.479 543.819L153.153 549.526L257.781 353.687L247.107 347.977ZM142.479 543.819L131.805 538.108C105.082 588.126 141.302 648.6 197.987 648.6V636.488V624.377C159.588 624.377 135.051 583.413 153.153 549.526L142.479 543.819ZM197.987 636.488V648.6H407.242V636.488V624.377H197.987V636.488ZM407.242 636.488V648.6C463.926 648.6 500.147 588.126 473.424 538.108L462.749 543.819L452.075 549.526C470.177 583.413 445.64 624.377 407.242 624.377V636.488ZM462.749 543.819L473.424 538.108L368.796 342.267L358.122 347.977L347.447 353.687L452.075 549.526L462.749 543.819Z" fill="#FCFBF4"/>
<path d="M697.764 512.906C756.59 512.906 804.278 465.189 804.278 406.328C804.278 347.466 756.59 299.75 697.764 299.75C638.938 299.75 591.25 347.466 591.25 406.328C591.25 465.189 638.938 512.906 697.764 512.906Z" fill="#E85D00" stroke="#FCFBF4" stroke-width="25"/>
<path d="M912.647 510.492C971.473 510.492 1019.16 462.775 1019.16 403.914C1019.16 345.052 971.473 297.336 912.647 297.336C853.821 297.336 806.133 345.052 806.133 403.914C806.133 462.775 853.821 510.492 912.647 510.492Z" fill="#E85D00" stroke="#FCFBF4" stroke-width="25"/>
<path d="M912.647 449.937C938.049 449.937 958.641 429.332 958.641 403.915C958.641 378.497 938.049 357.893 912.647 357.893C887.244 357.893 866.652 378.497 866.652 403.915C866.652 429.332 887.244 449.937 912.647 449.937Z" fill="#E85D00" stroke="#FCFBF4" stroke-width="30"/>
<path d="M912.646 326.402V476.58" stroke="#E85D00" stroke-width="15"/>
<path d="M964.291 351.838L858.16 458.03" stroke="#E85D00" stroke-width="15"/>
<path d="M858.16 344.953L964.286 451.145" stroke="#E85D00" stroke-width="15"/>
<path d="M835.182 403.914H999.794" stroke="#E85D00" stroke-width="15"/>
<path d="M204.996 621.916L203.446 623.776L204.119 624.338H204.996V621.916ZM186.649 532.163L188.361 530.453L186.209 528.297L184.596 530.879L186.649 532.163ZM198.531 560.324C198.311 561.641 199.202 562.891 200.521 563.109C201.84 563.332 203.087 562.441 203.307 561.118L200.919 560.721L198.531 560.324ZM257.998 436.296L257.565 433.913L253.94 434.573L255.984 437.64L257.998 436.296ZM273.945 462.493C273.769 463.819 274.7 465.037 276.025 465.214C277.351 465.391 278.568 464.459 278.744 463.133L276.345 462.813L273.945 462.493ZM304.218 391.378C305.319 390.619 305.599 389.112 304.841 388.009C304.084 386.907 302.576 386.628 301.475 387.385L302.846 389.382L304.218 391.378ZM236.16 544.507C235.091 545.311 234.874 546.827 235.676 547.898C236.478 548.968 237.996 549.186 239.065 548.382L237.613 546.444L236.16 544.507ZM241.69 509.728L243.142 507.79L240.455 505.775L239.393 508.963L241.69 509.728ZM239.651 515.847V518.269H241.396L241.948 516.612L239.651 515.847ZM302.846 624.338C304.183 624.338 305.267 623.253 305.267 621.916C305.267 620.579 304.183 619.494 302.846 619.494V621.916V624.338ZM305.142 506.415C305.566 505.145 304.88 503.774 303.612 503.348C302.343 502.927 300.972 503.615 300.55 504.884L302.846 505.649L305.142 506.415ZM304.054 544.463C305.213 543.794 305.611 542.317 304.944 541.154C304.277 539.996 302.797 539.599 301.638 540.263L302.846 542.365L304.054 544.463ZM304.299 564.698C305.368 563.899 305.585 562.378 304.783 561.307C303.981 560.236 302.463 560.023 301.394 560.823L302.846 562.76L304.299 564.698ZM304.347 449.415C305.396 448.586 305.574 447.062 304.745 446.013C303.917 444.963 302.394 444.785 301.345 445.614L302.846 447.515L304.347 449.415ZM204.996 621.916L206.546 620.056C198.658 613.477 188.25 601.177 182.815 585.82C177.415 570.555 176.922 552.306 188.702 533.447L186.649 532.163L184.596 530.879C171.913 551.187 172.44 571.01 178.251 587.433C184.029 603.764 195.025 616.752 203.446 623.776L204.996 621.916ZM186.649 532.163L184.937 533.878C185.526 534.469 186.184 535.162 186.886 535.942L188.688 534.323L190.489 532.71C189.734 531.867 189.017 531.107 188.361 530.453L186.649 532.163ZM188.688 534.323L186.886 535.942C189.616 538.989 192.907 543.261 195.324 547.772C197.786 552.369 199.118 556.797 198.531 560.324L200.919 560.721L203.307 561.118C204.164 555.973 202.198 550.349 199.591 545.485C196.94 540.534 193.393 535.946 190.489 532.71L188.688 534.323ZM188.688 534.323L190.963 535.152C193.585 527.919 199.682 516.472 207.556 506.032C215.489 495.51 224.873 486.489 233.925 483.469L233.159 481.171L232.394 478.873C221.875 482.381 211.742 492.438 203.691 503.111C195.58 513.865 189.226 525.734 186.412 533.5L188.688 534.323ZM235.574 515.847L237.772 514.834C235.865 510.697 233.709 503.382 233.612 495.166C233.515 486.974 235.46 478.052 241.541 470.446L239.651 468.932L237.761 467.419C230.796 476.131 228.664 486.247 228.77 495.224C228.877 504.172 231.206 512.155 233.376 516.864L235.574 515.847ZM239.651 468.932L241.541 470.446C249.601 460.365 255.362 453.55 258.516 448.553C260.105 446.035 261.212 443.714 261.54 441.457C261.889 439.062 261.334 436.936 260.012 434.952L257.998 436.296L255.984 437.64C256.701 438.715 256.91 439.649 256.749 440.76C256.568 442.009 255.891 443.64 254.422 445.967C251.46 450.659 246.01 457.102 237.761 467.419L239.651 468.932ZM257.998 436.296L258.431 438.679C260.402 438.321 262.936 438.354 265.374 439.183L266.153 436.89L266.931 434.596C263.608 433.467 260.228 433.428 257.565 433.913L257.998 436.296ZM266.153 436.89L265.374 439.183C268.029 440.086 270.609 441.938 272.327 445.41C274.074 448.938 275.031 454.346 273.945 462.493L276.345 462.813L278.744 463.133C279.91 454.391 278.976 447.927 276.666 443.26C274.328 438.537 270.687 435.873 266.931 434.596L266.153 436.89ZM266.153 436.89L268.542 437.279C269.781 429.657 278.595 409.004 304.218 391.378L302.846 389.382L301.475 387.385C274.91 405.659 265.241 427.409 263.763 436.501L266.153 436.89ZM231.497 621.916L232.933 619.964C226.866 615.492 218.418 605.605 214.283 592.718C210.186 579.953 210.315 564.243 221.28 547.786L219.266 546.444L217.251 545.098C205.384 562.911 205.174 580.181 209.673 594.201C214.134 608.104 223.217 618.82 230.061 623.863L231.497 621.916ZM219.266 546.444L221.671 546.716C221.987 543.906 223.025 540.19 224.889 537.816C225.788 536.673 226.778 535.966 227.865 535.694C228.931 535.423 230.413 535.491 232.47 536.499L233.536 534.323L234.601 532.148C231.765 530.758 229.102 530.385 226.682 530.995C224.282 531.601 222.444 533.093 221.084 534.822C218.428 538.199 217.224 542.942 216.86 546.173L219.266 546.444ZM233.536 534.323L232.47 536.499C237.07 538.756 237.792 540.699 237.847 541.571C237.91 542.588 237.203 543.722 236.16 544.507L237.613 546.444L239.065 548.382C240.741 547.123 242.887 544.603 242.679 541.266C242.461 537.792 239.786 534.692 234.601 532.148L233.536 534.323ZM219.266 546.444L217.006 547.311C218.793 551.962 222.53 558.279 228.11 561.452C230.98 563.08 234.357 563.884 238.102 563.143C241.805 562.407 245.621 560.212 249.517 556.317L247.805 554.602L246.094 552.887C242.651 556.337 239.654 557.897 237.161 558.391C234.71 558.875 232.507 558.381 230.501 557.238C226.33 554.869 223.136 549.768 221.525 545.572L219.266 546.444ZM247.805 554.602L249.796 555.983C253.061 551.26 256.636 543.257 256.8 534.401C256.966 525.405 253.596 515.634 243.142 507.79L241.69 509.728L240.237 511.666C249.353 518.506 252.099 526.752 251.96 534.314C251.817 542.012 248.665 549.104 245.815 553.222L247.805 554.602ZM241.69 509.728L239.393 508.963L237.355 515.081L239.651 515.847L241.948 516.612L243.986 510.494L241.69 509.728ZM239.651 515.847V513.425H235.574V515.847V518.269H239.651V515.847ZM235.574 515.847L233.486 514.621C232.344 516.569 230.912 519.839 230.192 523.516C229.475 527.168 229.405 531.533 231.377 535.423L233.536 534.323L235.694 533.229C234.404 530.685 234.334 527.551 234.943 524.446C235.547 521.36 236.766 518.603 237.662 517.072L235.574 515.847ZM253.921 621.916V619.494H204.996V621.916V624.338H253.921V621.916ZM253.921 621.916L255.46 620.046C250.012 615.555 243.11 606.903 240.318 595.727C237.555 584.672 238.762 570.967 249.754 556.041L247.805 554.602L245.857 553.164C234.016 569.242 232.505 584.434 235.621 596.904C238.706 609.253 246.278 618.752 252.382 623.786L253.921 621.916ZM272.268 621.916V619.494H253.921V621.916V624.338H272.268V621.916ZM272.268 621.916L274.067 620.293C268.338 613.927 262.879 602.509 265.175 589.075C267.46 575.705 277.533 559.742 304.054 544.463L302.846 542.365L301.638 540.263C274.342 555.993 263.01 573.002 260.403 588.257C257.806 603.449 263.966 616.306 270.469 623.534L272.268 621.916ZM302.846 621.916V619.494H287.557V621.916V624.338H302.846V621.916ZM287.557 621.916V619.494H272.268V621.916V624.338H287.557V621.916ZM287.557 621.916L288.9 619.901C283.785 616.485 278.442 609.752 278.739 600.629C279.036 591.498 285.002 579.178 304.299 564.698L302.846 562.76L301.394 560.823C281.55 575.714 274.266 589.235 273.9 600.47C273.534 611.709 280.117 619.862 286.214 623.931L287.557 621.916ZM247.805 554.602L249.326 556.487C257.734 549.695 270.228 539.391 281.21 529.92L279.629 528.084L278.049 526.253C267.117 535.68 254.665 545.945 246.284 552.718L247.805 554.602ZM279.629 528.084L281.21 529.92C287.273 524.693 292.899 519.693 297.125 515.668C299.235 513.662 301.026 511.87 302.356 510.392C303.02 509.656 303.597 508.973 304.048 508.357C304.463 507.795 304.91 507.112 305.142 506.415L302.846 505.649L300.55 504.884C300.569 504.826 300.507 505 300.15 505.485C299.83 505.921 299.37 506.473 298.763 507.146C297.552 508.488 295.862 510.184 293.788 512.16C289.647 516.104 284.091 521.04 278.049 526.253L279.629 528.084ZM279.629 528.084L281.1 526.161C274.98 521.476 268.623 512.083 269.695 499.167C270.768 486.228 279.346 469.186 304.347 449.415L302.846 447.515L301.345 445.614C275.79 465.823 266.097 483.967 264.87 498.765C263.64 513.594 270.953 524.494 278.159 530.007L279.629 528.084Z" fill="#FCFBF4"/>
<path d="M400.973 621.916L402.523 623.776L401.85 624.338H400.973V621.916ZM419.32 532.163L417.608 530.453L419.76 528.297L421.373 530.879L419.32 532.163ZM407.438 560.324C407.658 561.641 406.767 562.891 405.448 563.109C404.129 563.332 402.882 562.441 402.662 561.118L405.05 560.721L407.438 560.324ZM347.971 436.296L348.404 433.913L352.029 434.573L349.985 437.64L347.971 436.296ZM332.024 462.493C332.2 463.819 331.269 465.037 329.944 465.214C328.619 465.391 327.401 464.459 327.224 463.133L329.624 462.813L332.024 462.493ZM301.751 391.378C300.65 390.619 300.371 389.112 301.128 388.009C301.886 386.907 303.393 386.628 304.494 387.385L303.123 389.382L301.751 391.378ZM369.809 544.507C370.879 545.311 371.095 546.827 370.293 547.898C369.491 548.968 367.974 549.186 366.904 548.382L368.356 546.444L369.809 544.507ZM364.279 509.728L362.827 507.79L365.514 505.775L366.576 508.963L364.279 509.728ZM366.318 515.847V518.269H364.573L364.021 516.612L366.318 515.847ZM303.123 624.338C301.786 624.338 300.702 623.253 300.702 621.916C300.702 620.579 301.786 619.494 303.123 619.494V621.916V624.338ZM300.826 506.415C300.404 505.145 301.089 503.774 302.357 503.348C303.626 502.927 304.997 503.615 305.419 504.884L303.123 505.649L300.826 506.415ZM301.915 544.463C300.757 543.794 300.358 542.317 301.025 541.154C301.692 539.996 303.172 539.599 304.331 540.263L303.123 542.365L301.915 544.463ZM301.671 564.698C300.601 563.899 300.384 562.378 301.186 561.307C301.988 560.236 303.506 560.023 304.576 560.823L303.123 562.76L301.671 564.698ZM301.622 449.415C300.573 448.586 300.395 447.062 301.224 446.013C302.053 444.963 303.575 444.785 304.624 445.614L303.123 447.515L301.622 449.415ZM400.973 621.916L399.423 620.056C407.311 613.477 417.72 601.177 423.154 585.82C428.554 570.555 429.047 552.306 417.267 533.447L419.32 532.163L421.373 530.879C434.056 551.187 433.529 571.01 427.717 587.433C421.94 603.764 410.944 616.752 402.523 623.776L400.973 621.916ZM419.32 532.163L421.032 533.878C420.443 534.469 419.785 535.162 419.083 535.942L417.281 534.323L415.48 532.71C416.235 531.867 416.953 531.107 417.608 530.453L419.32 532.163ZM417.281 534.323L419.083 535.942C416.353 538.989 413.062 543.261 410.645 547.772C408.184 552.369 406.851 556.797 407.438 560.324L405.05 560.721L402.662 561.118C401.805 555.973 403.771 550.349 406.378 545.485C409.029 540.534 412.575 535.946 415.48 532.71L417.281 534.323ZM417.281 534.323L415.006 535.152C412.384 527.919 406.287 516.472 398.413 506.032C390.48 495.51 381.095 486.489 372.044 483.469L372.809 481.171L373.575 478.873C384.094 482.381 394.227 492.438 402.278 503.111C410.389 513.865 416.743 525.734 419.557 533.5L417.281 534.323ZM370.395 515.847L368.197 514.834C370.104 510.697 372.259 503.382 372.357 495.166C372.455 486.974 370.509 478.052 364.428 470.446L366.318 468.932L368.208 467.419C375.173 476.131 377.305 486.247 377.198 495.224C377.092 504.172 374.763 512.155 372.593 516.864L370.395 515.847ZM366.318 468.932L364.428 470.446C356.368 460.365 350.607 453.55 347.453 448.553C345.863 446.035 344.757 443.714 344.429 441.457C344.081 439.062 344.635 436.936 345.957 434.952L347.971 436.296L349.985 437.64C349.268 438.715 349.058 439.649 349.22 440.76C349.401 442.009 350.078 443.64 351.546 445.967C354.508 450.659 359.959 457.102 368.208 467.419L366.318 468.932ZM347.971 436.296L347.538 438.679C345.567 438.321 343.033 438.354 340.596 439.183L339.817 436.89L339.038 434.596C342.361 433.467 345.741 433.428 348.404 433.913L347.971 436.296ZM339.817 436.89L340.596 439.183C337.94 440.086 335.36 441.938 333.641 445.41C331.895 448.938 330.938 454.346 332.024 462.493L329.624 462.813L327.224 463.133C326.059 454.391 326.993 447.927 329.303 443.26C331.64 438.537 335.282 435.873 339.038 434.596L339.817 436.89ZM339.817 436.89L337.427 437.279C336.188 429.657 327.374 409.004 301.751 391.378L303.123 389.382L304.494 387.385C331.058 405.659 340.727 427.409 342.206 436.501L339.817 436.89ZM374.472 621.916L373.036 619.964C379.103 615.492 387.551 605.605 391.686 592.718C395.783 579.953 395.654 564.243 384.689 547.786L386.703 546.444L388.717 545.098C400.584 562.911 400.795 580.181 396.296 594.201C391.835 608.104 382.752 618.82 375.908 623.863L374.472 621.916ZM386.703 546.444L384.298 546.716C383.982 543.906 382.944 540.19 381.08 537.816C380.182 536.673 379.191 535.966 378.105 535.694C377.038 535.423 375.556 535.491 373.499 536.499L372.433 534.323L371.368 532.148C374.204 530.758 376.867 530.385 379.287 530.995C381.687 531.601 383.525 533.093 384.886 534.822C387.541 538.199 388.745 542.942 389.109 546.173L386.703 546.444ZM372.433 534.323L373.499 536.499C368.899 538.756 368.177 540.699 368.122 541.571C368.059 542.588 368.767 543.722 369.809 544.507L368.356 546.444L366.904 548.382C365.228 547.123 363.082 544.603 363.29 541.266C363.507 537.792 366.183 534.692 371.368 532.148L372.433 534.323ZM386.703 546.444L388.963 547.311C387.176 551.962 383.439 558.279 377.859 561.452C374.989 563.08 371.612 563.884 367.867 563.143C364.163 562.407 360.348 560.212 356.452 556.317L358.164 554.602L359.875 552.887C363.318 556.337 366.314 557.897 368.807 558.391C371.259 558.875 373.462 558.381 375.468 557.238C379.639 554.869 382.832 549.768 384.444 545.572L386.703 546.444ZM358.164 554.602L356.173 555.983C352.908 551.26 349.333 543.257 349.169 534.401C349.003 525.405 352.373 515.634 362.827 507.79L364.279 509.728L365.732 511.666C356.615 518.506 353.87 526.752 354.01 534.314C354.152 542.012 357.304 549.104 360.154 553.222L358.164 554.602ZM364.279 509.728L366.576 508.963L368.614 515.081L366.318 515.847L364.021 516.612L361.983 510.494L364.279 509.728ZM366.318 515.847V513.425H370.395V515.847V518.269H366.318V515.847ZM370.395 515.847L372.484 514.621C373.625 516.569 375.057 519.839 375.777 523.516C376.494 527.168 376.564 531.533 374.592 535.423L372.433 534.323L370.275 533.229C371.565 530.685 371.635 527.551 371.026 524.446C370.422 521.36 369.203 518.603 368.306 517.072L370.395 515.847ZM352.048 621.916V619.494H400.973V621.916V624.338H352.048V621.916ZM352.048 621.916L350.509 620.046C355.956 615.555 362.859 606.903 365.651 595.727C368.413 584.672 367.206 570.967 356.215 556.041L358.164 554.602L360.112 553.164C371.952 569.242 373.464 584.434 370.348 596.904C367.263 609.253 359.691 618.752 353.587 623.786L352.048 621.916ZM333.701 621.916V619.494H352.048V621.916V624.338H333.701V621.916ZM333.701 621.916L331.902 620.293C337.631 613.927 343.091 602.509 340.794 589.075C338.509 575.705 328.436 559.742 301.915 544.463L303.123 542.365L304.331 540.263C331.628 555.993 342.959 573.002 345.566 588.257C348.163 603.449 342.003 616.306 335.5 623.534L333.701 621.916ZM303.123 621.916V619.494H318.412V621.916V624.338H303.123V621.916ZM318.412 621.916V619.494H333.701V621.916V624.338H318.412V621.916ZM318.412 621.916L317.069 619.901C322.184 616.485 327.527 609.752 327.23 600.629C326.933 591.498 320.967 579.178 301.671 564.698L303.123 562.76L304.576 560.823C324.419 575.714 331.703 589.235 332.069 600.47C332.435 611.709 325.852 619.862 319.755 623.931L318.412 621.916ZM358.164 554.602L356.643 556.487C348.236 549.695 335.741 539.391 324.759 529.92L326.339 528.084L327.92 526.253C338.852 535.68 351.304 545.945 359.684 552.718L358.164 554.602ZM326.339 528.084L324.759 529.92C318.695 524.693 313.071 519.693 308.844 515.668C306.734 513.662 304.943 511.87 303.613 510.392C302.949 509.656 302.373 508.973 301.921 508.357C301.506 507.795 301.059 507.112 300.826 506.415L303.123 505.649L305.419 504.884C305.401 504.826 305.462 505 305.818 505.485C306.139 505.921 306.599 506.473 307.206 507.146C308.417 508.488 310.107 510.184 312.181 512.16C316.322 516.104 321.877 521.04 327.92 526.253L326.339 528.084ZM326.339 528.084L324.869 526.161C330.989 521.476 337.346 512.083 336.275 499.167C335.201 486.228 326.622 469.186 301.622 449.415L303.123 447.515L304.624 445.614C330.179 465.823 339.872 483.967 341.099 498.765C342.329 513.594 335.016 524.494 327.81 530.007L326.339 528.084Z" fill="#FCFBF4"/>
<path d="M1185.81 433.241C1134.36 521.961 1039.58 495.515 998.632 471.198C1006.91 466.035 1018.01 455.619 1024.64 441.064C1031.4 426.198 1030.29 405.7 1019.88 383.39C1049 394.162 1111.47 401.846 1128.34 346.403C1092.21 379.791 1034.26 348.465 1055.18 297.666C1076.1 246.866 1136.89 198.885 1164.3 186.664C1153.76 203.193 1124.36 231.109 1157.85 265.714C1158.36 231.262 1178.68 151.739 1255.84 109.271C1277.88 101.027 1331.31 69.0812 1368.72 7.24805C1372.7 39.8406 1371.6 116.148 1335.38 160.638C1299.15 205.128 1282.57 198.293 1278.81 189.314C1281.43 182.964 1280.89 171.598 1257.81 176.937C1234.72 182.276 1227.71 216.821 1227.08 233.427C1240.71 228.78 1255.76 228.091 1271.38 234.532C1234.68 260.255 1242.2 278.213 1227.66 331.642C1216.02 374.384 1194.91 417.184 1185.81 433.241Z" fill="#E85D00"/>
<path d="M1024.64 441.064C1031.4 426.198 1030.29 405.7 1019.88 383.39C1049 394.162 1111.47 401.846 1128.34 346.403C1092.21 379.791 1034.26 348.465 1055.18 297.666C1076.1 246.866 1136.89 198.885 1164.3 186.664C1153.76 203.193 1124.36 231.109 1157.85 265.714M1024.64 441.064C1018.01 455.619 1006.91 466.035 998.632 471.198C1039.58 495.515 1134.36 521.961 1185.81 433.241C1194.91 417.184 1216.02 374.384 1227.66 331.642C1242.2 278.213 1234.68 260.255 1271.38 234.532C1255.76 228.091 1240.71 228.78 1227.08 233.427M1024.64 441.064C1056.89 454.365 1130.93 459.639 1169.05 374.332C1175.27 361.081 1182.16 336.569 1179.08 311.611M1157.85 265.714C1162.77 270.799 1166.7 276.263 1169.81 281.954M1157.85 265.714C1158.36 231.262 1178.68 151.739 1255.84 109.271C1277.88 101.027 1331.31 69.0812 1368.72 7.24805C1372.7 39.8406 1371.6 116.148 1335.38 160.638C1299.15 205.128 1282.57 198.293 1278.81 189.314C1281.43 182.964 1280.89 171.598 1257.81 176.937C1234.72 182.276 1227.71 216.821 1227.08 233.427M1227.08 233.427C1200.65 242.435 1179.52 266.322 1169.81 281.954M1179.08 311.611C1181.65 315.147 1189.86 321.999 1202.15 321.126M1179.08 311.611C1177.83 301.563 1174.98 291.442 1169.81 281.954" stroke="#FCFBF4" stroke-width="11" stroke-linecap="round"/>
</g>
<defs>
<clipPath id="clip0_1106_5725">
<rect width="1375" height="654" fill="white"/>
</clipPath>
</defs>
</svg>
